#define ac11_width 8
#define ac11_height 8
static char ac11_bits[] = {
  0x40, 0x20, 0x10, 0xF8, 0x40, 0x20, 0x10, 0x08, };
