#define ac12_width 8
#define ac12_height 8
static char ac12_bits[] = {
  0x00, 0x40, 0x20, 0x10, 0xF8, 0x40, 0x20, 0x10, };
