#define ac2_width 8
#define ac2_height 8
static char ac2_bits[] = {
  0x48, 0x48, 0xFC, 0xFC, 0x78, 0x30, 0x30, 0x30, };
