#define ac6_width 8
#define ac6_height 8
static char ac6_bits[] = {
  0x00, 0x30, 0xF8, 0x3F, 0x3F, 0x3F, 0xF8, 0x30, };
