#define ac7_width 8
#define ac7_height 8
static char ac7_bits[] = {
  0x1C, 0x12, 0xF1, 0x11, 0x11, 0xF1, 0x12, 0x1C, };
