#define ac8_width 8
#define ac8_height 8
static char ac8_bits[] = {
  0x44, 0x44, 0x44, 0xFE, 0xFE, 0x7C, 0x38, 0x38, };
