#define arch2_width 8
#define arch2_height 8
static char arch2_bits[] = {
  0x00, 0x30, 0x30, 0x78, 0x78, 0xCC, 0xCC, 0x84, };
