#define art_width 8
#define art_height 8
static char art_bits[] = {
  0x40, 0xE0, 0x70, 0x38, 0x1C, 0x0E, 0x07, 0x03, };
