#define back2_width 8
#define back2_height 8
static char back2_bits[] = {
  0x00, 0x84, 0xC4, 0xE4, 0xF4, 0xE4, 0xC4, 0x84, };
