#define back4_width 8
#define back4_height 8
static char back4_bits[] = {
  0x00, 0x88, 0xC8, 0xE8, 0xE8, 0xC8, 0x88, 0x00, };
