#define back1_width 8
#define back1_height 8
static char back1_bits[] = {
  0x84, 0xC4, 0xE4, 0xF4, 0xF4, 0xE4, 0xC4, 0x84, };
