#define batt12half_width 8
#define batt12half_height 8
static char batt12half_bits[] = {
  0x00, 0x70, 0xF8, 0x88, 0x88, 0xA8, 0x88, 0xF8, };
