#define batt5empty_width 8
#define batt5empty_height 8
static char batt5empty_bits[] = {
  0x00, 0x7F, 0x41, 0xC1, 0xC1, 0x41, 0x7F, 0x00, };
