#define batt12empty_width 8
#define batt12empty_height 8
static char batt12empty_bits[] = {
  0x00, 0x70, 0xF8, 0x88, 0x88, 0x88, 0x88, 0xF8, };
