#define batt2empty_width 8
#define batt2empty_height 8
static char batt2empty_bits[] = {
  0x00, 0x30, 0xFC, 0x84, 0x84, 0x84, 0x84, 0xFC, };
