#define battery70_width 8
#define battery70_height 8
static char battery70_bits[] = {
  0xFF, 0x00, 0x1F, 0x1F, 0x1F, 0x1F, 0x1F, 0x00, };
