#define battery50_width 8
#define battery50_height 8
static char battery50_bits[] = {
  0xFF, 0x00, 0x07, 0x07, 0x07, 0x07, 0x07, 0x00, };
