#define batt5half_width 8
#define batt5half_height 8
static char batt5half_bits[] = {
  0x00, 0x7F, 0x41, 0xC5, 0xCD, 0x41, 0x7F, 0x00, };
