#define battery80_width 8
#define battery80_height 8
static char battery80_bits[] = {
  0xFF, 0x00, 0x3F, 0x3F, 0x3F, 0x3F, 0x3F, 0x00, };
