#define battery10_width 8
#define battery10_height 8
static char battery10_bits[] = {
  0xFF, 0x00, 0x00, 0x00, 0x00, 0x00, 0x00, 0x00, };
