#define batt11half_width 8
#define batt11half_height 8
static char batt11half_bits[] = {
  0x00, 0x20, 0xF8, 0x88, 0x88, 0xA8, 0x88, 0xF8, };
