#define batt4half_width 8
#define batt4half_height 8
static char batt4half_bits[] = {
  0x70, 0xF8, 0x88, 0x88, 0x88, 0xA8, 0x88, 0xF8, };
