#define batt12full_width 8
#define batt12full_height 8
static char batt12full_bits[] = {
  0x00, 0x70, 0xF8, 0x88, 0xA8, 0xA8, 0x88, 0xF8, };
