#define battery40_width 8
#define battery40_height 8
static char battery40_bits[] = {
  0xFF, 0x00, 0x03, 0x03, 0x03, 0x03, 0x03, 0x00, };
