#define battery_width 8
#define battery_height 8
static char battery_bits[] = {
  0xFF, 0x01, 0x01, 0x39, 0x39, 0x39, 0x39, 0x39, };
