#define batt11empty_width 8
#define batt11empty_height 8
static char batt11empty_bits[] = {
  0x00, 0x20, 0xF8, 0x88, 0x88, 0x88, 0x88, 0xF8, };
