#define batt3empty_width 8
#define batt3empty_height 8
static char batt3empty_bits[] = {
  0x20, 0xF8, 0x88, 0x88, 0x88, 0x88, 0x88, 0xF8, };
