#define batt9empty_width 8
#define batt9empty_height 8
static char batt9empty_bits[] = {
  0x00, 0x7F, 0xC1, 0xC1, 0xC1, 0x7F, 0x00, 0x00, };
