#define batt6empty_width 8
#define batt6empty_height 8
static char batt6empty_bits[] = {
  0x00, 0x00, 0x7F, 0x41, 0xC1, 0x41, 0x7F, 0x00, };
