#define batt9half_width 8
#define batt9half_height 8
static char batt9half_bits[] = {
  0x00, 0x7F, 0xC1, 0xC5, 0xC1, 0x7F, 0x00, 0x00, };
