#define bluetooth1_width 8
#define bluetooth1_height 8
static char bluetooth1_bits[] = {
  0x00, 0x20, 0x64, 0xA8, 0x70, 0xA8, 0x64, 0x20, };
