#define calendar_width 8
#define calendar_height 8
static char calendar_bits[] = {
  0xAA, 0xFF, 0xAA, 0x00, 0xAA, 0x00, 0xAA, 0x00, };
