#define clock3_width 8
#define clock3_height 8
static char clock3_bits[] = {
  0x18, 0x34, 0x76, 0xF7, 0x87, 0x7E, 0x3C, 0x18, };
