#define clock1_width 8
#define clock1_height 8
static char clock1_bits[] = {
  0xFF, 0xF7, 0xF7, 0xF7, 0x87, 0xFF, 0xFF, 0xFF, };
