#define clock12_width 8
#define clock12_height 8
static char clock12_bits[] = {
  0x00, 0x30, 0x68, 0xEC, 0x8C, 0x78, 0x30, 0x00, };
