#define clock10_width 8
#define clock10_height 8
static char clock10_bits[] = {
  0x00, 0xFC, 0xEC, 0xEC, 0x8C, 0xFC, 0xFC, 0x00, };
