#define clock8_width 8
#define clock8_height 8
static char clock8_bits[] = {
  0x00, 0x00, 0x78, 0xEC, 0xEC, 0x8C, 0xFC, 0x78, };
