#define code_width 8
#define code_height 8
static char code_bits[] = {
  0x04, 0x0C, 0x18, 0x18, 0x30, 0x78, 0x6C, 0xCC, };
