#define corner_width 8
#define corner_height 8
static char corner_bits[] = {
  0xCF, 0xC7, 0xC3, 0xC3, 0xC3, 0xC3, 0xC3, 0xC3, };
