#define cpu10_width 8
#define cpu10_height 8
static char cpu10_bits[] = {
  0x00, 0xC6, 0xBA, 0x7C, 0x7C, 0x7C, 0xBA, 0xC6, };
