#define cpu13_width 8
#define cpu13_height 8
static char cpu13_bits[] = {
  0xDB, 0xC3, 0x3C, 0xBD, 0xBD, 0x3C, 0xC3, 0xDB, };
