#define cpu4_width 8
#define cpu4_height 8
static char cpu4_bits[] = {
  0x00, 0x9C, 0xF8, 0xC8, 0x4C, 0x7C, 0xE4, 0x00, };
