#define dice1_width 8
#define dice1_height 8
static char dice1_bits[] = {
  0xFF, 0xFF, 0xFF, 0xE7, 0xE7, 0xFF, 0xFF, 0xFF, };
