#define dice3_width 8
#define dice3_height 8
static char dice3_bits[] = {
  0xFF, 0x9F, 0x9F, 0xE7, 0xE7, 0xF9, 0xF9, 0xFF, };
