#define dice5_width 8
#define dice5_height 8
static char dice5_bits[] = {
  0xFF, 0x99, 0x99, 0xE7, 0xE7, 0x99, 0x99, 0xFF, };
