#define docs_width 8
#define docs_height 8
static char docs_bits[] = {
  0x3E, 0x22, 0xE2, 0x82, 0x82, 0x82, 0x82, 0x82, };
