#define downarrow8_width 8
#define downarrow8_height 8
static char downarrow8_bits[] = {
  0x00, 0x70, 0x70, 0x70, 0x70, 0xF8, 0x70, 0x20, };
