#define downright3_width 8
#define downright3_height 8
static char downright3_bits[] = {
  0x70, 0x38, 0x38, 0x38, 0xFE, 0x7C, 0x38, 0x10, };
