#define downarrow5_width 8
#define downarrow5_height 8
static char downarrow5_bits[] = {
  0x78, 0x78, 0x78, 0x78, 0x78, 0xFC, 0x78, 0x30, };
