#define downarrow6_width 8
#define downarrow6_height 8
static char downarrow6_bits[] = {
  0x00, 0x78, 0x78, 0x78, 0x78, 0xFC, 0x78, 0x30, };
