#define downarrow4_width 8
#define downarrow4_height 8
static char downarrow4_bits[] = {
  0x00, 0x38, 0x38, 0x38, 0xFE, 0x7C, 0x38, 0x10, };
