#define downleft3_width 8
#define downleft3_height 8
static char downleft3_bits[] = {
  0x1C, 0x38, 0x38, 0x38, 0xFE, 0x7C, 0x38, 0x10, };
