#define downright8_width 8
#define downright8_height 8
static char downright8_bits[] = {
  0x00, 0xE0, 0x70, 0x70, 0x70, 0xF8, 0x70, 0x20, };
