#define downarrow7_width 8
#define downarrow7_height 8
static char downarrow7_bits[] = {
  0x70, 0x70, 0x70, 0x70, 0x70, 0xF8, 0x70, 0x20, };
