#define downright1_width 8
#define downright1_height 8
static char downright1_bits[] = {
  0x78, 0x3C, 0x3C, 0x3C, 0xFF, 0x7E, 0x3C, 0x18, };
