#define downright6_width 8
#define downright6_height 8
static char downright6_bits[] = {
  0x00, 0xF0, 0x78, 0x78, 0x78, 0xFC, 0x78, 0x30, };
