#define edit2_width 8
#define edit2_height 8
static char edit2_bits[] = {
  0x7C, 0xFE, 0x82, 0xBA, 0x82, 0xBA, 0x82, 0x7C, };
