#define edit1_width 8
#define edit1_height 8
static char edit1_bits[] = {
  0x7C, 0xFE, 0x82, 0x92, 0xA2, 0x92, 0x82, 0x7C, };
