#define error3_width 8
#define error3_height 8
static char error3_bits[] = {
  0x3C, 0x7E, 0xFF, 0xC3, 0xC3, 0xFF, 0x7E, 0x3C, };
