#define error4_width 8
#define error4_height 8
static char error4_bits[] = {
  0x00, 0x38, 0x7C, 0xFE, 0xC6, 0xFE, 0x7C, 0x38, };
