#define error1_width 8
#define error1_height 8
static char error1_bits[] = {
  0xFF, 0xBD, 0xDB, 0xE7, 0xE7, 0xDB, 0xBD, 0xFF, };
