#define file3_width 8
#define file3_height 8
static char file3_bits[] = {
  0xFE, 0xBA, 0x82, 0xFE, 0xBA, 0x82, 0x82, 0xFE, };
