#define file5_width 8
#define file5_height 8
static char file5_bits[] = {
  0xFC, 0xB4, 0x84, 0xFC, 0xB4, 0x84, 0x84, 0xFC, };
