#define file6_width 8
#define file6_height 8
static char file6_bits[] = {
  0x00, 0xFC, 0xB4, 0x84, 0xFC, 0xB4, 0x84, 0xFC, };
