#define forward2_width 8
#define forward2_height 8
static char forward2_bits[] = {
  0x00, 0x84, 0x8C, 0x9C, 0xBC, 0x9C, 0x8C, 0x84, };
