#define headphone1_width 8
#define headphone1_height 8
static char headphone1_bits[] = {
  0x3C, 0x42, 0x81, 0x81, 0x81, 0xE7, 0xE7, 0x66, };
