#define heart1_width 8
#define heart1_height 8
static char heart1_bits[] = {
  0x66, 0xFF, 0xFF, 0xFF, 0xFF, 0x7E, 0x3C, 0x18, };
