#define info5_width 8
#define info5_height 8
static char info5_bits[] = {
  0x78, 0xCC, 0xCC, 0xCC, 0xCC, 0xFC, 0xCC, 0x78, };
