#define info11_width 8
#define info11_height 8
static char info11_bits[] = {
  0xFC, 0xCC, 0xFC, 0xCC, 0xCC, 0xCC, 0xCC, 0xFC, };
