#define info9_width 8
#define info9_height 8
static char info9_bits[] = {
  0x00, 0x3C, 0x66, 0xFF, 0xE7, 0xE7, 0x66, 0x3C, };
