#define info10_width 8
#define info10_height 8
static char info10_bits[] = {
  0x00, 0x3C, 0x66, 0xE7, 0xE7, 0xFF, 0x66, 0x3C, };
