#define info13_width 8
#define info13_height 8
static char info13_bits[] = {
  0x00, 0xFC, 0xCC, 0xFC, 0xCC, 0xCC, 0xCC, 0xFC, };
