#define layout_tall_width 8
#define layout_tall_height 8
static char layout_tall_bits[] = {
  0xFF, 0x10, 0x10, 0x10, 0xF0, 0x10, 0x10, 0x10, };
