#define layout_mirror_tall_width 8
#define layout_mirror_tall_height 8
static char layout_mirror_tall_bits[] = {
  0xFF, 0x00, 0x00, 0x00, 0xFF, 0x10, 0x10, 0x10, };
