#define leftup3_width 8
#define leftup3_height 8
static char leftup3_bits[] = {
  0x00, 0x84, 0xFE, 0xFF, 0xFF, 0x7E, 0x04, 0x00, };
