#define leftup2_width 8
#define leftup2_height 8
static char leftup2_bits[] = {
  0x00, 0x08, 0x8C, 0xFE, 0xFF, 0x7E, 0x0C, 0x08, };
