#define leftup1_width 8
#define leftup1_height 8
static char leftup1_bits[] = {
  0x08, 0x8C, 0xFE, 0xFF, 0xFF, 0x7E, 0x0C, 0x08, };
