#define lock1_width 8
#define lock1_height 8
static char lock1_bits[] = {
  0x7E, 0x81, 0x81, 0x81, 0x81, 0xFF, 0xFF, 0xFF, };
