#define mail2_width 8
#define mail2_height 8
static char mail2_bits[] = {
  0xFF, 0x7E, 0xBD, 0xDB, 0xE7, 0xFF, 0xFF, 0xFF, };
