#define mail4_width 8
#define mail4_height 8
static char mail4_bits[] = {
  0x00, 0xFF, 0x7E, 0xBD, 0xDB, 0xE7, 0xFF, 0xFF, };
