#define mem1_width 8
#define mem1_height 8
static char mem1_bits[] = {
  0xAA, 0x00, 0xFE, 0xFE, 0xFE, 0xFE, 0x00, 0xAA, };
