#define mem2_width 8
#define mem2_height 8
static char mem2_bits[] = {
  0x00, 0xAA, 0x00, 0xFE, 0xFE, 0xFE, 0x00, 0xAA, };
