#define messenger1_width 8
#define messenger1_height 8
static char messenger1_bits[] = {
  0x03, 0x37, 0x7B, 0x7A, 0x37, 0x7B, 0xFC, 0xFC, };
