#define mic1_width 8
#define mic1_height 8
static char mic1_bits[] = {
  0x30, 0x30, 0x30, 0xB4, 0x84, 0x78, 0x30, 0x78, };
