#define music_width 8
#define music_height 8
static char music_bits[] = {
  0xFF, 0x80, 0x80, 0x80, 0xC0, 0xE0, 0x60, 0x00, };
