#define note1_width 8
#define note1_height 8
static char note1_bits[] = {
  0xFC, 0xFC, 0x84, 0x84, 0x84, 0xC6, 0xE7, 0x63, };
