#define ntile_width 8
#define ntile_height 8
static char ntile_bits[] = {
  0xEF, 0xEF, 0x0F, 0xEF, 0xE0, 0x0F, 0xEF, 0xEF, };
