#define pacman4_width 8
#define pacman4_height 8
static char pacman4_bits[] = {
  0x00, 0x78, 0xEC, 0x7C, 0x3C, 0xFC, 0x78, 0x00, };
