#define pacman1_width 8
#define pacman1_height 8
static char pacman1_bits[] = {
  0x3C, 0x76, 0x3F, 0x1F, 0x0F, 0xFF, 0x7E, 0x3C, };
