#define pause4_width 8
#define pause4_height 8
static char pause4_bits[] = {
  0x00, 0xD8, 0xD8, 0xD8, 0xD8, 0xD8, 0xD8, 0x00, };
