#define pause3_width 8
#define pause3_height 8
static char pause3_bits[] = {
  0x00, 0x00, 0xD8, 0xD8, 0xD8, 0xD8, 0xD8, 0xD8, };
