#define pics_width 8
#define pics_height 8
static char pics_bits[] = {
  0x00, 0xFF, 0x00, 0x80, 0xD1, 0xBB, 0x7F, 0xFF, };
