#define play3_width 8
#define play3_height 8
static char play3_bits[] = {
  0x00, 0x00, 0x20, 0x60, 0xE0, 0xE0, 0x60, 0x20, };
