#define prev4_width 8
#define prev4_height 8
static char prev4_bits[] = {
  0x00, 0x88, 0xCC, 0xEE, 0xEE, 0xCC, 0x88, 0x00, };
