#define prev3_width 8
#define prev3_height 8
static char prev3_bits[] = {
  0x00, 0x00, 0x88, 0xCC, 0xEE, 0xEE, 0xCC, 0x88, };
