#define push3_width 8
#define push3_height 8
static char push3_bits[] = {
  0x00, 0x00, 0x78, 0xFC, 0xFC, 0xFC, 0xFC, 0x78, };
