#define push2_width 8
#define push2_height 8
static char push2_bits[] = {
  0x00, 0x7C, 0xFE, 0xFE, 0xFE, 0xFE, 0xFE, 0x7C, };
