#define rightarrow3_width 8
#define rightarrow3_height 8
static char rightarrow3_bits[] = {
  0x00, 0x20, 0x7F, 0xFF, 0xFF, 0x7F, 0x20, 0x00, };
