#define rightdown3_width 8
#define rightdown3_height 8
static char rightdown3_bits[] = {
  0x00, 0x20, 0x7E, 0xFF, 0xFF, 0x7F, 0x21, 0x00, };
