#define rss3_width 8
#define rss3_height 8
static char rss3_bits[] = {
  0x00, 0x3C, 0x44, 0x9C, 0xA4, 0xAC, 0xFC, 0x00, };
