#define select2_width 8
#define select2_height 8
static char select2_bits[] = {
  0x00, 0x10, 0x38, 0x7C, 0xFE, 0x00, 0xFE, 0x00, };
