#define skip3_width 8
#define skip3_height 8
static char skip3_bits[] = {
  0x00, 0x00, 0x22, 0x66, 0xEE, 0xEE, 0x66, 0x22, };
