#define skip2_width 8
#define skip2_height 8
static char skip2_bits[] = {
  0x00, 0x11, 0x33, 0x77, 0xFF, 0x77, 0x33, 0x11, };
