#define spade2_width 8
#define spade2_height 8
static char spade2_bits[] = {
  0x00, 0x18, 0x3C, 0x7E, 0xFF, 0xFF, 0x7E, 0x18, };
