#define spiral_width 8
#define spiral_height 8
static char spiral_bits[] = {
  0xEF, 0xEF, 0xEF, 0xEF, 0x0F, 0xAF, 0x8F, 0xAF, };
