#define temp1_width 8
#define temp1_height 8
static char temp1_bits[] = {
  0x30, 0xF0, 0x30, 0xF0, 0x30, 0x78, 0x78, 0x30, };
