#define temp2_width 8
#define temp2_height 8
static char temp2_bits[] = {
  0x00, 0x30, 0xF0, 0x30, 0xF0, 0x30, 0x78, 0x30, };
