#define temp6_width 8
#define temp6_height 8
static char temp6_bits[] = {
  0x00, 0xC8, 0xE0, 0x51, 0x2C, 0x12, 0x12, 0x0C, };
