#define time_width 8
#define time_height 8
static char time_bits[] = {
  0xF8, 0x04, 0x22, 0x22, 0x22, 0xE2, 0x02, 0x04, };
