#define uparrow7_width 8
#define uparrow7_height 8
static char uparrow7_bits[] = {
  0x20, 0x70, 0xF8, 0x70, 0x70, 0x70, 0x70, 0x70, };
