#define uparrow3_width 8
#define uparrow3_height 8
static char uparrow3_bits[] = {
  0x10, 0x38, 0x7C, 0xFE, 0x38, 0x38, 0x38, 0x38, };
