#define uparrow8_width 8
#define uparrow8_height 8
static char uparrow8_bits[] = {
  0x00, 0x20, 0x70, 0xF8, 0x70, 0x70, 0x70, 0x70, };
