#define uparrow1_width 8
#define uparrow1_height 8
static char uparrow1_bits[] = {
  0x18, 0x3C, 0x7E, 0xFF, 0x3C, 0x3C, 0x3C, 0x3C, };
