#define upleft6_width 8
#define upleft6_height 8
static char upleft6_bits[] = {
  0x00, 0x30, 0x78, 0xFC, 0x78, 0x78, 0x78, 0x3C, };
