#define upleft7_width 8
#define upleft7_height 8
static char upleft7_bits[] = {
  0x20, 0x70, 0xF8, 0x70, 0x70, 0x70, 0x70, 0x38, };
