#define upleft5_width 8
#define upleft5_height 8
static char upleft5_bits[] = {
  0x30, 0x78, 0xFC, 0x78, 0x78, 0x78, 0x78, 0x3C, };
