#define upright6_width 8
#define upright6_height 8
static char upright6_bits[] = {
  0x00, 0x30, 0x78, 0xFC, 0x78, 0x78, 0x78, 0xF0, };
