#define upright4_width 8
#define upright4_height 8
static char upright4_bits[] = {
  0x00, 0x10, 0x38, 0x7C, 0xFE, 0x38, 0x38, 0x70, };
