#define upright1_width 8
#define upright1_height 8
static char upright1_bits[] = {
  0x18, 0x3C, 0x7E, 0xFF, 0x3C, 0x3C, 0x3C, 0x78, };
