#define upright2_width 8
#define upright2_height 8
static char upright2_bits[] = {
  0x00, 0x18, 0x3C, 0x7E, 0xFF, 0x3C, 0x3C, 0x78, };
