#define usb1_width 8
#define usb1_height 8
static char usb1_bits[] = {
  0x20, 0xA0, 0xA8, 0xA8, 0x68, 0x30, 0x20, 0x20, };
