#define usb2_width 8
#define usb2_height 8
static char usb2_bits[] = {
  0x00, 0x20, 0xA0, 0xA8, 0x68, 0x30, 0x20, 0x20, };
