#define vol11_width 8
#define vol11_height 8
static char vol11_bits[] = {
  0x00, 0x20, 0xB0, 0xBC, 0xBC, 0xB0, 0x20, 0x00, };
