#define vol10_width 8
#define vol10_height 8
static char vol10_bits[] = {
  0x00, 0x48, 0x8C, 0xAF, 0xAF, 0x8C, 0x48, 0x00, };
