#define vol9_width 8
#define vol9_height 8
static char vol9_bits[] = {
  0x00, 0x00, 0x20, 0xB0, 0x5C, 0x2C, 0x10, 0x28, };
