#define volume100_width 8
#define volume100_height 8
static char volume100_bits[] = {
  0x02, 0x83, 0xA3, 0xAB, 0xAB, 0xAB, 0xA3, 0x83, };
