#define volume50_width 8
#define volume50_height 8
static char volume50_bits[] = {
  0x02, 0x03, 0x23, 0x2B, 0x2B, 0x2B, 0x23, 0x03, };
