#define volume25_width 8
#define volume25_height 8
static char volume25_bits[] = {
  0x02, 0x03, 0x03, 0x0B, 0x0B, 0x0B, 0x03, 0x03, };
