#define wifi_width 8
#define wifi_height 8
static char wifi_bits[] = {
  0xC0, 0xD8, 0xD8, 0xD9, 0xD9, 0xD9, 0xD8, 0xD8, };
