#define wireless5_width 8
#define wireless5_height 8
static char wireless5_bits[] = {
  0x00, 0x00, 0xC0, 0xC0, 0xD8, 0xD8, 0xDB, 0xDB, };
