#define wireless7_width 8
#define wireless7_height 8
static char wireless7_bits[] = {
  0x00, 0x00, 0x80, 0xB0, 0xB0, 0x80, 0x00, 0x00, };
