#define wireless2_width 8
#define wireless2_height 8
static char wireless2_bits[] = {
  0x00, 0x00, 0x00, 0x00, 0x00, 0x00, 0x03, 0x03, };
