#define wireless3_width 8
#define wireless3_height 8
static char wireless3_bits[] = {
  0x00, 0x00, 0x00, 0x00, 0x18, 0x18, 0x1B, 0x1B, };
