#define www_width 8
#define www_height 8
static char www_bits[] = {
  0x00, 0x44, 0x29, 0x29, 0x92, 0x92, 0x6C, 0x44, };
